<?xml version="1.0" encoding="UTF-8"?>
<svg version="1.1" xmlns="http://www.w3.org/2000/svg" width="192" height="192">
<path d="M0 0 C63.36 0 126.72 0 192 0 C192 63.36 192 126.72 192 192 C128.64 192 65.28 192 0 192 C0 128.64 0 65.28 0 0 Z " fill="#000000" transform="translate(0,0)"/>
<path d="M0 0 C2.31297051 3.21534018 2.52532696 6.21327835 2.8046875 10.046875 C3.54785435 17.62562862 4.4347876 24.96077515 8.7421875 31.421875 C9.22699647 32.82305699 9.65860834 34.24307411 10.0546875 35.671875 C14.28026722 50.2931795 14.28026722 50.2931795 20.62890625 64.078125 C23.17399898 69.43621496 24.07048146 75.10803688 24.9921875 80.921875 C26.41230631 89.14749824 28.67505215 100.35473965 34.7421875 106.421875 C35.95525737 110.77013248 36.26203567 114.28766081 34.3671875 118.421875 C30.67805031 121.23264619 27.35264276 121.97446982 22.7421875 121.421875 C18.68376837 118.51040041 16.46539186 115.07452676 14.7421875 110.421875 C14.38255255 107.70134234 14.1722269 104.99591176 13.9921875 102.2578125 C13.63393311 98.19386427 12.71544095 94.37977237 11.7421875 90.421875 C3.35045828 89.78938935 -5.0281969 89.30821744 -13.4453125 89.234375 C-14.50383423 89.21503906 -14.50383423 89.21503906 -15.58374023 89.1953125 C-19.59264859 89.18759657 -22.65024957 89.64961593 -26.2578125 91.421875 C-26.29519531 92.64003906 -26.33257812 93.85820312 -26.37109375 95.11328125 C-26.43679367 96.7370079 -26.50323959 98.36070449 -26.5703125 99.984375 C-26.59287109 100.78423828 -26.61542969 101.58410156 -26.63867188 102.40820312 C-26.87872072 107.75474558 -27.7092788 111.68715836 -30.2578125 116.421875 C-35.65633105 120.71865507 -40.47373514 121.17841745 -47.2578125 120.421875 C-49.83374082 119.13391084 -50.20587073 118.06809296 -51.2578125 115.421875 C-52.0943667 107.584683 -48.43407883 101.23355675 -44.75390625 94.62109375 C-43.29482395 91.5010196 -42.82119624 89.7979641 -43.2578125 86.421875 C-43.5878125 86.091875 -43.9178125 85.761875 -44.2578125 85.421875 C-44.5703125 83.109375 -44.5703125 83.109375 -44.2578125 80.421875 C-43.62101562 79.82503906 -42.98421875 79.22820312 -42.328125 78.61328125 C-39.81384271 75.95193716 -39.47784305 74.24521343 -38.8203125 70.671875 C-37.73917578 65.39093794 -36.36281761 60.34999278 -34.6953125 55.234375 C-33.00056058 50.00935498 -31.66334018 44.86271282 -30.7265625 39.44921875 C-30.2578125 37.421875 -30.2578125 37.421875 -28.6328125 34.359375 C-26.9724602 30.81225871 -27.0533955 28.22844822 -27.25 24.375 C-27.2578125 22.421875 -27.2578125 22.421875 -26.2578125 20.421875 C-26.16196416 18.98696892 -26.12797857 17.54747061 -26.1328125 16.109375 C-26.13410156 15.30113281 -26.13539062 14.49289063 -26.13671875 13.66015625 C-26.17208829 11.32145326 -26.17208829 11.32145326 -27.0703125 8.796875 C-27.34118455 5.36582903 -26.06096033 3.58951196 -23.9609375 0.94140625 C-18.31110266 -4.09938677 -6.04210813 -4.2232036 0 0 Z " fill="#F98500" transform="translate(101.2578125,36.578125)"/>
<path d="M0 0 C2.375 -0.1875 2.375 -0.1875 5 0 C6.83024682 2.74537023 7.41792264 4.14395658 8.11328125 7.24609375 C8.30704346 8.07794189 8.50080566 8.90979004 8.70043945 9.7668457 C9.00340942 11.08881958 9.00340942 11.08881958 9.3125 12.4375 C10.99421974 19.54551786 13.04375877 25.91574198 16.0625 32.56640625 C17.35613373 35.9244638 17.40295698 38.45397858 17 42 C11.32590402 44.32783425 5.58308515 45.29848556 -0.28515625 43.171875 C-3.29745019 41.70673021 -5.62042764 40.37957236 -8 38 C-8.5113417 32.9888513 -7.540478 29.39611906 -5.859375 24.796875 C-4.54698498 20.52564203 -3.83448208 16.16114767 -3.09057617 11.76000977 C-2.38568546 7.68703033 -1.40823024 3.88623195 0 0 Z " fill="#080400" transform="translate(89,71)"/>
<path d="M0 0 C2.5 0.25 2.5 0.25 4.5 2.25 C4.125 4.875 4.125 4.875 3.5 7.25 C0.58517222 8.05967438 -0.96113217 8.46845993 -3.8125 7.3125 C-4.369375 6.961875 -4.92625 6.61125 -5.5 6.25 C-4.75451591 2.52257953 -4.15390859 0.41539086 0 0 Z " fill="#EE7F00" transform="translate(105.5,130.75)"/>
<path d="M0 0 C1.2684375 0.12375 1.2684375 0.12375 2.5625 0.25 C4.71059171 3.47213757 4.85636153 4.52775401 4.5625 8.25 C3.5625 9.25 3.5625 9.25 1.125 9.5 C0.279375 9.4175 -0.56625 9.335 -1.4375 9.25 C-3.58559171 6.02786243 -3.73136153 4.97224599 -3.4375 1.25 C-2.4375 0.25 -2.4375 0.25 0 0 Z " fill="#E67A00" transform="translate(137.4375,128.75)"/>
<path d="M0 0 C2.51570636 0.97382182 3.73944098 1.46151135 4.9375 3.9375 C5 6 5 6 3.8125 7.8125 C2 9 2 9 -0.1875 8.6875 C-0.785625 8.460625 -1.38375 8.23375 -2 8 C-2.125 5.125 -2.125 5.125 -2 2 C-1.34 1.34 -0.68 0.68 0 0 Z " fill="#EE7F00" transform="translate(118,62)"/>
<path d="M0 0 C0.99 0 1.98 0 3 0 C3.33 1.98 3.66 3.96 4 6 C2.35 6.33 0.7 6.66 -1 7 C-1.625 4.625 -1.625 4.625 -2 2 C-1.34 1.34 -0.68 0.68 0 0 Z " fill="#E77B00" transform="translate(65,56)"/>
<path d="M0 0 C0.99 0.33 1.98 0.66 3 1 C2.34 2.32 1.68 3.64 1 5 C0.01 4.67 -0.98 4.34 -2 4 C-1.34 2.68 -0.68 1.36 0 0 Z " fill="#D57100" transform="translate(91,130)"/>
</svg>
